g GreenFoliage_01
v 0.02301918 -0.06306096 -0.0426615
v 0.2542362 -0.05134873 0.232841
v 0.2034349 -0.08798235 -0.0426615
v 0.02301922 -0.02129635 0.201291
v -0.1726434 -0.09008844 -0.0426615
v -0.2212482 -0.06521123 0.3305011
v -0.1612682 -0.08165384 0.4521934
v -0.07441225 -0.08419135 0.5031816
v 0.03454224 -0.06964973 0.4775297
v 0.1603192 -0.06479459 0.3499767
v 0.2551129 -0.08965574 0.4552915
v 0.1297616 -0.08374159 0.4912115
v 0.4758708 -0.005825553 -0.0426615
v 0.3354822 0.002618217 -0.0426615
v 0.5459904 0.01925549 0.2005608
v 0.3474483 0.04437451 0.2059368
v 0.5254179 0.08902769 0.3404031
v 0.346054 0.1626909 0.4559302
v 0.2983821 0.09397035 0.2354289
v 0.251169 0.09750593 0.1603804
v 0.2196308 0.06867547 -0.0426615
v 0.1744771 0.239403 0.3415567
v 0.2802038 0.2179174 0.3896226
v 0.2847267 -0.2410382 0.186678
v 0.3279841 -0.1847753 0.1754085
v 0.3097845 -0.204382 0.1257843
v 0.3836124 -0.1314857 0.1861859
v 0.3731608 -0.121704 -0.0426615
v 0.3113901 -0.1807731 -0.0426615
v 0.375183 -0.1701333 0.227971
v 0.3463275 -0.2498658 0.2805991
v 0.4429133 -0.1112431 0.1759935
v 0.4474055 -0.09768139 -0.0426615
v 0.3959118 -0.1738589 0.2621093
v 0.3820896 -0.2632309 0.3442543
v 0.3882618 -0.2583713 0.3465116
v 0.452774 -0.1357355 0.2259597
v 0.5605406 -0.1359532 0.2768255
v 0.4969154 -0.2082642 0.3763589
v 0.5181234 -0.2045626 0.3804883
v -0.0198002 -0.2540534 -0.0426615
v -0.0603528 -0.3117575 0.1877618
v 0.09343069 -0.1839069 -0.0426615
v 0.1069796 -0.2227496 0.1928533
v -0.006326637 -0.3545038 0.3202024
v 0.172682 -0.3135297 0.4296148
v 0.1720311 -0.2343224 0.2207845
v 0.2104911 -0.2112703 0.1497081
v 0.2191452 -0.1717381 -0.0426615
v 0.3473312 -0.2791677 0.3212949
v 0.2537948 -0.3202915 0.3668167
v -0.2574791 -0.166066 -0.0426615
v -0.4427319 -0.2302996 0.4642442
v -0.2385081 -0.194131 0.258445
v -0.1906042 -0.1957235 0.2196843
v -0.1881363 -0.181628 -0.0426615
v -0.1895549 -0.2552498 0.3579287
v -0.1304631 -0.2628027 0.2186083
v -0.1455276 -0.2291522 -0.0426615
v -0.1327943 -0.3796233 0.4442461
v -0.2083639 -0.3018388 0.4607112
v -0.2765921 -0.007657995 -0.0426615
v -0.4029227 -0.05038574 -0.0426615
v -0.4035266 -0.007659998 0.1603803
v -0.2998586 0.02902224 0.2059368
v -0.1770319 0.09168003 -0.0426615
v -0.1548724 0.1622753 0.2005607
v -0.2150289 0.1917214 0.3404031
v -0.3892313 0.1065673 0.4559302
v -0.3695241 0.02528542 0.2354289
v -0.5605406 0.02925949 0.3415567
v -0.4742541 0.09402364 0.3896225
v 0.08110775 0.1965631 -0.0426615
v 0.02782434 0.2261673 0.2394013
v 0.1308852 0.3796233 0.4399683
v 0.02263586 0.1652419 -0.0426615
v -0.003328075 0.1974329 0.2004752
v -0.0527405 0.2409655 0.3246026
v -0.08624704 0.2080394 0.1911799
v -0.03611063 0.1727564 -0.0426615
v -0.1759816 0.295442 0.3926139
v -0.07710917 0.2869405 0.4178705
vt 0.2533223 0.02692134
vt 0.4531158 0.2619911
vt 0.4093564 0.02695785
vt 0.2530729 0.2381152
vt 0.08418357 0.02695908
vt 0.04216572 0.3456091
vt 0.09423542 0.4494662
vt 0.1691328 0.4936217
vt 0.2634148 0.4724771
vt 0.3728732 0.3639933
vt 0.453986 0.4518732
vt 0.3453123 0.483413
vt 0.1240717 0.5107072
vt 0.2533081 0.5107098
vt 0.06710853 0.7466698
vt 0.2533302 0.7466698
vt 0.1037899 0.886054
vt 0.2850928 0.9962644
vt 0.3110649 0.7799739
vt 0.3542711 0.7084311
vt 0.3754126 0.5106733
vt 0.4590945 0.894735
vt 0.3600243 0.9421431
vt 0.5920269 0.7570045
vt 0.6642107 0.7399875
vt 0.6373702 0.688727
vt 0.7466698 0.7466699
vt 0.7466164 0.5059692
vt 0.6556951 0.5094126
vt 0.716264 0.799165
vt 0.6436226 0.8675268
vt 0.8146117 0.7418377
vt 0.8301529 0.509122
vt 0.733317 0.8389738
vt 0.6682079 0.9441166
vt 0.6767051 0.9464
vt 0.8089847 0.8011811
vt 0.9075475 0.8703007
vt 0.8063149 0.9835619
vt 0.8281873 0.990295
vt 0.1240717 0.5107072
vt 0.06710853 0.7466698
vt 0.2533081 0.5107098
vt 0.2533302 0.7466698
vt 0.1037899 0.886054
vt 0.2850928 0.9962644
vt 0.3110649 0.7799739
vt 0.3542711 0.7084311
vt 0.3754126 0.5106733
vt 0.4590945 0.894735
vt 0.3600243 0.9421431
vt 0.6820561 0.006660536
vt 0.5557914 0.4970273
vt 0.7082143 0.2905912
vt 0.7466697 0.2533303
vt 0.7466697 0.006660521
vt 0.7742046 0.385741
vt 0.8262373 0.252969
vt 0.8030133 0.006629888
vt 0.8791595 0.4720785
vt 0.7821176 0.4868858
vt 0.2533081 0.5107098
vt 0.3754126 0.5106733
vt 0.3542711 0.7084311
vt 0.2533302 0.7466698
vt 0.1240717 0.5107072
vt 0.06710853 0.7466698
vt 0.1037899 0.886054
vt 0.2850928 0.9962644
vt 0.3110649 0.7799739
vt 0.4590945 0.894735
vt 0.3600243 0.9421431
vt 0.6820561 0.006660536
vt 0.7082143 0.2905912
vt 0.5557914 0.4970273
vt 0.7466697 0.006660521
vt 0.7466697 0.2533303
vt 0.7742046 0.385741
vt 0.8262373 0.252969
vt 0.8030133 0.006629888
vt 0.8791595 0.4720785
vt 0.7821176 0.4868858
vn -0.003335801 -0.9862316 0.1653363
vn -0.1136716 -0.9928164 -0.03734161
vn -0.135179 -0.9786139 0.1550528
vn 0.01254492 -0.9998395 0.0127881
vn 0.1778548 -0.9751194 0.1323249
vn 0.1384213 -0.9876066 -0.07397889
vn 0.07993759 -0.980913 -0.177256
vn 0.08225045 -0.9806311 -0.1777565
vn -0.01826087 -0.9853714 -0.1694399
vn -0.1019943 -0.9796075 -0.1731081
vn -0.07005737 -0.9831194 -0.1690216
vn -0.1223208 -0.9798473 -0.1579142
vn -0.05960784 -0.9910574 0.1193823
vn -0.300848 -0.9387262 0.1681768
vn -0.1018594 -0.9492799 0.2974765
vn -0.330632 -0.8962021 0.2958109
vn -0.09828241 -0.8982446 0.4283659
vn -0.1969933 -0.8865926 0.4185061
vn -0.5524807 -0.7520905 0.3593396
vn -0.5506285 -0.796992 0.2482176
vn -0.4856815 -0.8517894 0.196388
vn -0.4477071 -0.7437088 0.496443
vn -0.3979823 -0.7373654 0.5458044
vn 0.7874663 -0.6146422 -0.04595421
vn 0.7285375 -0.6685821 -0.1491009
vn 0.7364555 -0.6748616 -0.046853
vn 0.4938719 -0.8231044 -0.2803386
vn 0.5215258 -0.8503454 -0.07016763
vn 0.6880465 -0.719515 -0.09428687
vn 0.6636004 -0.5942706 -0.4543974
vn 0.6894786 -0.5559579 -0.4642521
vn 0.2652834 -0.9209515 -0.2854351
vn 0.3074207 -0.950118 -0.05261368
vn 0.4895822 -0.7161937 -0.4973691
vn 0.6464095 -0.5681084 -0.5093208
vn 0.6386107 -0.5719577 -0.5148211
vn 0.2299377 -0.8488798 -0.4759535
vn 0.2172081 -0.8588661 -0.4638638
vn 0.2437782 -0.8436356 -0.4783839
vn 0.2405185 -0.8447956 -0.4779866
vn 0.5228686 -0.8440175 -0.119344
vn 0.4642565 -0.8342593 -0.2974512
vn 0.2956173 -0.940397 -0.1681193
vn 0.246756 -0.9228331 -0.295788
vn 0.4377441 -0.7904953 -0.4283658
vn 0.3503833 -0.8379048 -0.4185059
vn -0.01759968 -0.9330409 -0.3593396
vn 0.009814755 -0.9686624 -0.248187
vn 0.09447156 -0.9759793 -0.1963149
vn 0.06316043 -0.8657686 -0.496443
vn 0.1001244 -0.8319091 -0.5458044
vn -0.1442311 -0.9872528 -0.06729931
vn 0.07760336 -0.992218 -0.09737035
vn -0.1018848 -0.9752359 -0.1963015
vn -0.4695756 -0.8667703 -0.1679528
vn -0.5020558 -0.8633195 -0.05118006
vn -0.709475 -0.6244275 -0.326704
vn -0.7463064 -0.6411561 -0.1787333
vn -0.7438743 -0.6669345 -0.04300762
vn -0.7326741 -0.5807006 -0.3549303
vn -0.6987813 -0.5947508 -0.3974622
vn 0.5114557 -0.8397568 0.182268
vn 0.314153 -0.9288378 0.1963881
vn 0.2300506 -0.9409914 0.2482175
vn 0.4618769 -0.8383172 0.2896447
vn 0.6866297 -0.709062 0.1605328
vn 0.6545286 -0.7007068 0.2839056
vn 0.6164643 -0.6671026 0.4182653
vn 0.5319203 -0.7361477 0.4185061
vn 0.1952544 -0.9125518 0.3593396
vn 0.2585809 -0.8286616 0.4964431
vn 0.2868669 -0.7872767 0.5458046
vn 0.5101305 -0.8400673 0.1845369
vn 0.5205073 -0.8076746 0.277009
vn 0.6706121 -0.7138858 0.2016093
vn 0.1963294 -0.9677122 0.1580761
vn 0.1946866 -0.9538084 0.2287936
vn -0.1607115 -0.9308348 0.3282047
vn -0.1647402 -0.9638681 0.2093297
vn -0.1259396 -0.9845628 0.1215534
vn -0.2093636 -0.9124755 0.3515045
vn -0.1788242 -0.9002181 0.3970259
g GreenFoliage_01_0
f 3/3/3 2/2/2 1/1/1
f 2/2/2 4/4/4 1/1/1
f 1/1/1 4/4/4 5/5/5
f 5/5/5 4/4/4 6/6/6
f 6/6/6 4/4/4 7/7/7
f 4/4/4 8/8/8 7/7/7
f 9/9/9 8/8/8 4/4/4
f 2/2/2 10/10/10 4/4/4
f 10/10/10 9/9/9 4/4/4
f 11/11/11 10/10/10 2/2/2
f 9/9/9 10/10/10 12/12/12
f 15/15/15 14/14/14 13/13/13
f 15/15/15 16/16/16 14/14/14
f 16/16/16 15/15/15 17/17/17
f 18/18/18 16/16/16 17/17/17
f 19/19/19 16/16/16 18/18/18
f 20/20/20 14/14/14 16/16/16
f 20/20/20 16/16/16 19/19/19
f 20/20/20 21/21/21 14/14/14
f 20/20/20 19/19/19 22/22/22
f 19/19/19 23/23/23 22/22/22
f 26/26/26 25/25/25 24/24/24
f 27/27/27 25/25/25 26/26/26
f 28/28/28 27/27/27 26/26/26
f 29/29/29 28/28/28 26/26/26
f 27/27/27 30/30/30 25/25/25
f 25/25/25 30/30/30 31/31/31
f 27/27/27 28/28/28 32/32/32
f 28/28/28 33/33/33 32/32/32
f 27/27/27 34/34/34 30/30/30
f 30/30/30 34/34/34 35/35/35
f 36/36/36 35/35/35 34/34/34
f 32/32/32 37/37/37 27/27/27
f 27/27/27 37/37/37 34/34/34
f 37/37/37 32/32/32 38/38/38
f 34/34/34 37/37/37 39/39/39
f 39/39/39 37/37/37 40/40/40
f 43/43/43 42/42/42 41/41/41
f 44/44/44 42/42/42 43/43/43
f 42/42/42 44/44/44 45/45/45
f 44/44/44 46/46/46 45/45/45
f 44/44/44 47/47/47 46/46/46
f 43/43/43 48/48/48 44/44/44
f 44/44/44 48/48/48 47/47/47
f 49/49/49 48/48/48 43/43/43
f 47/47/47 48/48/48 50/50/50
f 51/51/51 47/47/47 50/50/50
f 54/54/54 53/53/53 52/52/52
f 55/55/55 54/54/54 52/52/52
f 56/56/56 55/55/55 52/52/52
f 55/55/55 57/57/57 54/54/54
f 55/55/55 56/56/56 58/58/58
f 55/55/55 58/58/58 57/57/57
f 56/56/56 59/59/59 58/58/58
f 57/57/57 58/58/58 60/60/60
f 61/61/61 57/57/57 60/60/60
f 64/64/64 63/63/63 62/62/62
f 64/64/64 62/62/62 65/65/65
f 65/65/65 62/62/62 66/66/66
f 67/67/67 65/65/65 66/66/66
f 65/65/65 67/67/67 68/68/68
f 69/69/69 65/65/65 68/68/68
f 70/70/70 65/65/65 69/69/69
f 64/64/64 65/65/65 70/70/70
f 64/64/64 70/70/70 71/71/71
f 70/70/70 72/72/72 71/71/71
f 75/75/75 74/74/74 73/73/73
f 74/74/74 76/76/76 73/73/73
f 74/74/74 77/77/77 76/76/76
f 78/78/78 77/77/77 74/74/74
f 76/76/76 77/77/77 79/79/79
f 79/79/79 77/77/77 78/78/78
f 80/80/80 76/76/76 79/79/79
f 79/79/79 78/78/78 81/81/81
f 78/78/78 82/82/82 81/81/81
